<?xml version="1.0" encoding="utf-8"?>
<!-- Generator: Adobe Illustrator 27.1.0, SVG Export Plug-In . SVG Version: 6.00 Build 0)  -->
<svg version="1.1" id="Layer_1" xmlns="http://www.w3.org/2000/svg" xmlns:xlink="http://www.w3.org/1999/xlink" x="0px" y="0px"
	 viewBox="0 0 740.5 457.6" style="enable-background:new 0 0 740.5 457.6;" xml:space="preserve">
<style type="text/css">
	.st0{enable-background:new    ;}
	.st1{fill:#A30023;}
	.st2{fill:#FFD9D9;}
	.st3{font-family:'GulfsDisplay-Normal';}
	.st4{font-size:240px;}
	.st5{letter-spacing:-4;}
	.st6{fill:#FEA36C;}
</style>
<g>
	<g class="st0">
		<path class="st1" d="M437.9,456c-5.9,0-11.2-1.8-16-5.4c-4.8-3.6-7.2-9.5-7.2-17.8c0-8,2.5-15.4,7.4-22.2
			c4.9-6.8,11.3-13.1,19-18.8c7.7-5.7,16.2-11,25.4-15.8c9.2-4.8,17.9-9.3,26.2-13.6c3.7-9.3,7.3-19.4,10.6-30.2
			c3.3-10.8,6.6-22.7,9.8-35.8c-10.1,14.7-20.7,26.9-31.8,36.6c-11.1,9.7-22.2,14.6-33.4,14.6c-9.6,0-17-3.6-22.2-10.8
			s-7.8-16.5-7.8-28c0-13.9,3.4-27.1,10.2-39.6c6.8-12.5,15.7-23.6,26.6-33.2c10.9-9.6,22.5-17.1,34.8-22.6
			c12.3-5.5,23.7-8.2,34.4-8.2c7.7,0,13.3,1.3,16.6,3.8c3.3,2.5,5,5.5,5,9c0,2.4-0.7,4.3-2,5.6c-1.3,1.3-2.3,2.1-2.8,2.4
			c-1.3-2.1-3.3-3.7-6-4.6c-2.7-0.9-6-1.4-10-1.4c-10.4,0-20.5,3.1-30.2,9.2c-9.7,6.1-18.3,14-25.8,23.6
			c-7.5,9.6-13.4,19.5-17.8,29.8c-4.4,10.3-6.6,19.7-6.6,28.2c0,6.4,1.3,11.3,3.8,14.6c2.5,3.3,5.9,5,10.2,5c7.7,0,17-5.1,27.8-15.4
			c10.8-10.3,21.3-22.7,31.4-37.4c0.8-3.7,1.5-7.1,2.2-10c0.7-2.9,1.5-6.7,2.6-11.2c0.8-3.7,2.7-8.1,5.8-13
			c3.1-4.9,7.9-7.4,14.6-7.4c1.3,0,2.7,0.1,4,0.2c1.3,0.1,2.8,0.5,4.4,1c0,4.3-1.3,12.1-3.8,23.4c-2.5,11.3-6.1,24.5-10.8,39.6
			c-4.7,15.1-10.1,30.6-16.2,46.6c8.8-4.3,17.4-9.7,25.8-16.4c8.4-6.7,16.1-14.3,23-23c6.9-8.7,12.4-18.1,16.4-28.2l5.2,4
			c-4,12-10.4,22.9-19.2,32.8c-8.8,9.9-18.2,18.4-28.2,25.6c-10,7.2-19.1,12.8-27.4,16.8c-7.5,17.9-15.3,34.2-23.6,49
			c-8.3,14.8-16.9,26.6-25.8,35.4C457.5,451.6,448,456,437.9,456z M436.7,443.2c5.3,0,12.6-5.3,21.8-15.8
			c9.2-10.5,19.1-28.6,29.8-54.2c-10.7,5.3-20.6,10.9-29.8,16.6c-9.2,5.7-16.7,11.8-22.6,18.2c-5.9,6.4-8.8,13.5-8.8,21.2
			c0,4.3,0.9,7.7,2.8,10.2C431.7,441.9,434,443.2,436.7,443.2z"/>
	</g>
</g>
<text transform="matrix(1 0 0 1 0 335.34)" class="st2 st3 st4">F</text>
<text transform="matrix(1 0 0 1 150.57 335.34)" class="st2 st3 st4 st5">r</text>
<text transform="matrix(1 0 0 1 264.81 335.34)" class="st2 st3 st4">a</text>
<text transform="matrix(1 0 0 1 566.19 335.34)" class="st2 st3 st4">o</text>
<g>
	<path class="st6" d="M604,232.1c0,0-34.8-3.9-50.6-17.2s-10-36.5-10-36.5s0.8-4.2,5.5-4.8s7.2,1.5,6.6,5.7s-0.1,21.1,2.9,16.3
		s1-19.9,1-19.9s-1.4-16.5-0.1-20.9s3.8-10.7,7.6-12.1s8.9-0.7,10.3,0.8s3.4,6.3,0.8,9.9s-6.3,12.3-5.8,20.4s3.2,0.6,3.2,0.6
		s3.4-9.6,7.3-10.8s10,1,8.6,5.5s-6.5,15.2-8.6,16.7s-6.1,11.8-2.2,11.7s5.7-5,8.6-4.1s5.3-0.5,4.9,3s-1.8,6.8-4.7,8.8
		c-2.9,2.1-1.4,9.1,3.1,11.4s13.1,6,15.7,6.4s0.9,5.6,0.9,5.6S609.5,232.8,604,232.1L604,232.1z"/>
	<path class="st6" d="M678.9,232.1c0,0,34.8-3.9,50.6-17.2s10-36.5,10-36.5s-0.8-4.2-5.5-4.8s-7.2,1.5-6.6,5.7s0.1,21.1-2.9,16.3
		s-1-19.9-1-19.9s1.4-16.5,0.1-20.9s-3.8-10.7-7.6-12.1c-3.8-1.5-8.9-0.7-10.3,0.8s-3.4,6.3-0.8,9.9s6.3,12.3,5.8,20.4
		s-3.2,0.6-3.2,0.6s-3.4-9.6-7.3-10.8s-10,1-8.6,5.5s6.5,15.2,8.6,16.7s6.1,11.8,2.2,11.7c-3.9-0.1-5.7-5-8.6-4.1s-5.3-0.5-4.9,3
		s1.8,6.8,4.7,8.8s1.4,9.1-3.1,11.4s-13.1,6-15.7,6.4s-0.9,5.6-0.9,5.6S673.4,232.8,678.9,232.1L678.9,232.1z"/>
</g>
<ellipse class="st2" cx="638.5" cy="275.2" rx="31.3" ry="16.4"/>
<ellipse class="st1" cx="638.5" cy="275.2" rx="18.7" ry="16.4"/>
<path class="st6" d="M639.5,261.1c0,0,13.2,1.7,14.9,13.4s-4-4.8-6-6.7S631.6,259.6,639.5,261.1L639.5,261.1z"/>
</svg>
